<svg viewBox="0 0 330 200" xmlns="http://www.w3.org/2000/svg"><g><g><g><g><g><line x1="61.953125" y1="177" x2="56.953125" y2="177" style="visibility: inherit;" fill="rgb(0, 0, 0)" stroke="rgb(204, 204, 204)" stroke-width="1px"></line><line x1="61.953125" y1="163.3846153846154" x2="56.953125" y2="163.3846153846154" style="visibility: inherit;" fill="rgb(0, 0, 0)" stroke="rgb(204, 204, 204)" stroke-width="1px"></line><line x1="61.953125" y1="149.76923076923077" x2="56.953125" y2="149.76923076923077" style="visibility: inherit;" fill="rgb(0, 0, 0)" stroke="rgb(204, 204, 204)" stroke-width="1px"></line><line x1="61.953125" y1="136.15384615384616" x2="56.953125" y2="136.15384615384616" style="visibility: inherit;" fill="rgb(0, 0, 0)" stroke="rgb(204, 204, 204)" stroke-width="1px"></line><line x1="61.953125" y1="122.53846153846153" x2="56.953125" y2="122.53846153846153" style="visibility: inherit;" fill="rgb(0, 0, 0)" stroke="rgb(204, 204, 204)" stroke-width="1px"></line><line x1="61.953125" y1="108.92307692307693" x2="56.953125" y2="108.92307692307693" style="visibility: inherit;" fill="rgb(0, 0, 0)" stroke="rgb(204, 204, 204)" stroke-width="1px"></line><line x1="61.953125" y1="95.3076923076923" x2="56.953125" y2="95.3076923076923" style="visibility: inherit;" fill="rgb(0, 0, 0)" stroke="rgb(204, 204, 204)" stroke-width="1px"></line><line x1="61.953125" y1="81.6923076923077" x2="56.953125" y2="81.6923076923077" style="visibility: inherit;" fill="rgb(0, 0, 0)" stroke="rgb(204, 204, 204)" stroke-width="1px"></line><line x1="61.953125" y1="68.07692307692307" x2="56.953125" y2="68.07692307692307" style="visibility: inherit;" fill="rgb(0, 0, 0)" stroke="rgb(204, 204, 204)" stroke-width="1px"></line><line x1="61.953125" y1="54.46153846153847" x2="56.953125" y2="54.46153846153847" style="visibility: inherit;" fill="rgb(0, 0, 0)" stroke="rgb(204, 204, 204)" stroke-width="1px"></line><line x1="61.953125" y1="40.84615384615386" x2="56.953125" y2="40.84615384615386" style="visibility: inherit;" fill="rgb(0, 0, 0)" stroke="rgb(204, 204, 204)" stroke-width="1px"></line><line x1="61.953125" y1="27.230769230769234" x2="56.953125" y2="27.230769230769234" style="visibility: inherit;" fill="rgb(0, 0, 0)" stroke="rgb(204, 204, 204)" stroke-width="1px"></line><line x1="61.953125" y1="13.615384615384626" x2="56.953125" y2="13.615384615384626" style="visibility: inherit;" fill="rgb(0, 0, 0)" stroke="rgb(204, 204, 204)" stroke-width="1px"></line><line x1="61.953125" y1="0" x2="56.953125" y2="0" style="visibility: inherit;" fill="rgb(0, 0, 0)" stroke="rgb(204, 204, 204)" stroke-width="1px"></line></g><g transform="translate(51.953125, 0)"><text x="0" y="177" dx="0em" dy="0.3em" style="text-anchor: end; visibility: hidden; font-family: Roboto, sans-serif; font-size: 12px; font-weight: 200;" fill="rgb(33, 33, 33)" stroke="none" stroke-width="1px">-0.01</text><text x="0" y="163.3846153846154" dx="0em" dy="0.3em" style="text-anchor: end; visibility: inherit; font-family: Roboto, sans-serif; font-size: 12px; font-weight: 200;" fill="rgb(33, 33, 33)" stroke="none" stroke-width="1px">0</text><text x="0" y="149.76923076923077" dx="0em" dy="0.3em" style="text-anchor: end; visibility: hidden; font-family: Roboto, sans-serif; font-size: 12px; font-weight: 200;" fill="rgb(33, 33, 33)" stroke="none" stroke-width="1px">0.01</text><text x="0" y="136.15384615384616" dx="0em" dy="0.3em" style="text-anchor: end; visibility: inherit; font-family: Roboto, sans-serif; font-size: 12px; font-weight: 200;" fill="rgb(33, 33, 33)" stroke="none" stroke-width="1px">0.02</text><text x="0" y="122.53846153846153" dx="0em" dy="0.3em" style="text-anchor: end; visibility: hidden; font-family: Roboto, sans-serif; font-size: 12px; font-weight: 200;" fill="rgb(33, 33, 33)" stroke="none" stroke-width="1px">0.03</text><text x="0" y="108.92307692307693" dx="0em" dy="0.3em" style="text-anchor: end; visibility: inherit; font-family: Roboto, sans-serif; font-size: 12px; font-weight: 200;" fill="rgb(33, 33, 33)" stroke="none" stroke-width="1px">0.04</text><text x="0" y="95.3076923076923" dx="0em" dy="0.3em" style="text-anchor: end; visibility: hidden; font-family: Roboto, sans-serif; font-size: 12px; font-weight: 200;" fill="rgb(33, 33, 33)" stroke="none" stroke-width="1px">0.05</text><text x="0" y="81.6923076923077" dx="0em" dy="0.3em" style="text-anchor: end; visibility: inherit; font-family: Roboto, sans-serif; font-size: 12px; font-weight: 200;" fill="rgb(33, 33, 33)" stroke="none" stroke-width="1px">0.06</text><text x="0" y="68.07692307692307" dx="0em" dy="0.3em" style="text-anchor: end; visibility: hidden; font-family: Roboto, sans-serif; font-size: 12px; font-weight: 200;" fill="rgb(33, 33, 33)" stroke="none" stroke-width="1px">0.07</text><text x="0" y="54.46153846153847" dx="0em" dy="0.3em" style="text-anchor: end; visibility: inherit; font-family: Roboto, sans-serif; font-size: 12px; font-weight: 200;" fill="rgb(33, 33, 33)" stroke="none" stroke-width="1px">0.08</text><text x="0" y="40.84615384615386" dx="0em" dy="0.3em" style="text-anchor: end; visibility: hidden; font-family: Roboto, sans-serif; font-size: 12px; font-weight: 200;" fill="rgb(33, 33, 33)" stroke="none" stroke-width="1px">0.09</text><text x="0" y="27.230769230769234" dx="0em" dy="0.3em" style="text-anchor: end; visibility: inherit; font-family: Roboto, sans-serif; font-size: 12px; font-weight: 200;" fill="rgb(33, 33, 33)" stroke="none" stroke-width="1px">0.1</text><text x="0" y="13.615384615384626" dx="0em" dy="0.3em" style="text-anchor: end; visibility: hidden; font-family: Roboto, sans-serif; font-size: 12px; font-weight: 200;" fill="rgb(33, 33, 33)" stroke="none" stroke-width="1px">0.11</text><text x="0" y="0" dx="0em" dy="0.3em" style="text-anchor: end; visibility: hidden; font-family: Roboto, sans-serif; font-size: 12px; font-weight: 200;" fill="rgb(33, 33, 33)" stroke="none" stroke-width="1px">0.12</text></g><line x1="61.953125" y1="0" x2="61.953125" y2="177" fill="rgb(0, 0, 0)" stroke="rgb(204, 204, 204)" stroke-width="1px"></line></g></g><g transform="translate(61, 0)" clip-path="url(#clip_0)"><clipPath id="clip_0"><rect width="268" height="177"></rect></clipPath><g><g><g><line x1="0" y1="0" x2="0" y2="177" fill="rgb(0, 0, 0)" stroke="rgb(66, 66, 66)" stroke-width="1px" opacity="0.25"></line><line x1="20.618990384615387" y1="0" x2="20.618990384615387" y2="177" fill="rgb(0, 0, 0)" stroke="rgb(66, 66, 66)" stroke-width="1px" opacity="0.25"></line><line x1="41.237980769230774" y1="0" x2="41.237980769230774" y2="177" fill="rgb(0, 0, 0)" stroke="rgb(66, 66, 66)" stroke-width="1px" opacity="0.25"></line><line x1="61.85697115384616" y1="0" x2="61.85697115384616" y2="177" fill="rgb(0, 0, 0)" stroke="rgb(66, 66, 66)" stroke-width="1px" opacity="0.25"></line><line x1="82.47596153846155" y1="0" x2="82.47596153846155" y2="177" fill="rgb(0, 0, 0)" stroke="rgb(66, 66, 66)" stroke-width="1px" opacity="0.25"></line><line x1="103.09495192307693" y1="0" x2="103.09495192307693" y2="177" fill="rgb(0, 0, 0)" stroke="rgb(66, 66, 66)" stroke-width="1px" opacity="0.25"></line><line x1="123.71394230769232" y1="0" x2="123.71394230769232" y2="177" fill="rgb(0, 0, 0)" stroke="rgb(66, 66, 66)" stroke-width="1px" opacity="0.25"></line><line x1="144.33293269230768" y1="0" x2="144.33293269230768" y2="177" fill="rgb(0, 0, 0)" stroke="rgb(66, 66, 66)" stroke-width="1px" opacity="0.25"></line><line x1="164.9519230769231" y1="0" x2="164.9519230769231" y2="177" fill="rgb(0, 0, 0)" stroke="rgb(66, 66, 66)" stroke-width="1px" opacity="0.25"></line><line x1="185.57091346153845" y1="0" x2="185.57091346153845" y2="177" fill="rgb(0, 0, 0)" stroke="rgb(66, 66, 66)" stroke-width="1px" opacity="0.25"></line><line x1="206.18990384615387" y1="0" x2="206.18990384615387" y2="177" fill="rgb(0, 0, 0)" stroke="rgb(66, 66, 66)" stroke-width="1px" opacity="0.25"></line><line x1="226.80889423076923" y1="0" x2="226.80889423076923" y2="177" fill="rgb(0, 0, 0)" stroke="rgb(66, 66, 66)" stroke-width="1px" opacity="0.25"></line><line x1="247.42788461538464" y1="0" x2="247.42788461538464" y2="177" fill="rgb(0, 0, 0)" stroke="rgb(66, 66, 66)" stroke-width="1px" opacity="0.25"></line><line x1="268.046875" y1="0" x2="268.046875" y2="177" fill="rgb(0, 0, 0)" stroke="rgb(66, 66, 66)" stroke-width="1px" opacity="0.25"></line></g><g><line x1="0" y1="177" x2="268.046875" y2="177" fill="rgb(0, 0, 0)" stroke="rgb(66, 66, 66)" stroke-width="1px" opacity="0.25"></line><line x1="0" y1="163.3846153846154" x2="268.046875" y2="163.3846153846154" fill="rgb(0, 0, 0)" stroke="rgb(66, 66, 66)" stroke-width="1px" opacity="0.25"></line><line x1="0" y1="149.76923076923077" x2="268.046875" y2="149.76923076923077" fill="rgb(0, 0, 0)" stroke="rgb(66, 66, 66)" stroke-width="1px" opacity="0.25"></line><line x1="0" y1="136.15384615384616" x2="268.046875" y2="136.15384615384616" fill="rgb(0, 0, 0)" stroke="rgb(66, 66, 66)" stroke-width="1px" opacity="0.25"></line><line x1="0" y1="122.53846153846153" x2="268.046875" y2="122.53846153846153" fill="rgb(0, 0, 0)" stroke="rgb(66, 66, 66)" stroke-width="1px" opacity="0.25"></line><line x1="0" y1="108.92307692307693" x2="268.046875" y2="108.92307692307693" fill="rgb(0, 0, 0)" stroke="rgb(66, 66, 66)" stroke-width="1px" opacity="0.25"></line><line x1="0" y1="95.3076923076923" x2="268.046875" y2="95.3076923076923" fill="rgb(0, 0, 0)" stroke="rgb(66, 66, 66)" stroke-width="1px" opacity="0.25"></line><line x1="0" y1="81.6923076923077" x2="268.046875" y2="81.6923076923077" fill="rgb(0, 0, 0)" stroke="rgb(66, 66, 66)" stroke-width="1px" opacity="0.25"></line><line x1="0" y1="68.07692307692307" x2="268.046875" y2="68.07692307692307" fill="rgb(0, 0, 0)" stroke="rgb(66, 66, 66)" stroke-width="1px" opacity="0.25"></line><line x1="0" y1="54.46153846153847" x2="268.046875" y2="54.46153846153847" fill="rgb(0, 0, 0)" stroke="rgb(66, 66, 66)" stroke-width="1px" opacity="0.25"></line><line x1="0" y1="40.84615384615386" x2="268.046875" y2="40.84615384615386" fill="rgb(0, 0, 0)" stroke="rgb(66, 66, 66)" stroke-width="1px" opacity="0.25"></line><line x1="0" y1="27.230769230769234" x2="268.046875" y2="27.230769230769234" fill="rgb(0, 0, 0)" stroke="rgb(66, 66, 66)" stroke-width="1px" opacity="0.25"></line><line x1="0" y1="13.615384615384626" x2="268.046875" y2="13.615384615384626" fill="rgb(0, 0, 0)" stroke="rgb(66, 66, 66)" stroke-width="1px" opacity="0.25"></line><line x1="0" y1="0" x2="268.046875" y2="0" fill="rgb(0, 0, 0)" stroke="rgb(66, 66, 66)" stroke-width="1px" opacity="0.25"></line></g></g></g><g><g><line x1="0" y1="163.3846153846154" x2="268.046875" y2="163.3846153846154" fill="rgb(0, 0, 0)" stroke="rgb(153, 153, 153)" stroke-width="1.5px"></line></g></g><g><g><line x1="20.618990384615387" y1="0" x2="20.618990384615387" y2="177" fill="rgb(0, 0, 0)" stroke="rgb(153, 153, 153)" stroke-width="1.5px"></line></g></g><g><g><g><g><g><path stroke="rgb(0, 119, 187)" stroke-width="2px" d="M24.742788461538463,80.99193514081149L29.278966346153844,117.97531032762849L33.81514423076923,138.93265348257353L38.35132211538461,149.43590784081923L42.8875,155.36441825020765L47.42367788461539,158.1610389095073L51.959855769230764,160.14385892468147L56.496033653846155,161.3670567981332L61.03221153846154,161.89262038080983L65.56838942307692,162.241339455281L70.1045673076923,162.48056625926097L74.6407451923077,162.73899541315296L79.17692307692309,162.86683437228209L83.71310096153846,162.9180620800307L88.24927884615384,162.73839408876856L92.78545673076923,162.88774470772753L97.32163461538461,162.2304236134937L101.8578125,162.13259931842825L106.39399038461539,162.6084934102759L110.93016826923078,162.88041181807134L115.46634615384616,163.07845018458926L120.00252403846153,163.20091787654033L124.53870192307691,163.0601015182584L129.0748798076923,163.16751623360162L133.6110576923077,163.2126976845686L138.14723557692307,163.1794003922541L142.68341346153844,163.2383965132081L147.21959134615383,163.2306185136897L151.75576923076923,163.0717561998647L156.2919471153846,162.17670251893193L160.828125,162.51074481106517L165.36430288461537,161.21641625980845L169.90048076923077,155.48570419076174L174.43665865384617,145.2654219309833L178.97283653846154,129.92241579705967L183.50901442307693,116.40333713763546L188.0451923076923,106.93587539056989L192.5813701923077,100.14047812404421L197.11754807692307,94.41687839120924L201.65372596153847,86.80862867529211L206.18990384615387,58.27294110065138L210.72608173076924,57.92935049538889L215.2622596153846,37.83306493273622L219.79843749999998,65.97498632508041L224.33461538461538,58.26691562659019L228.87079326923077,38.43283669524296L233.40697115384614,21.744769008107273L237.94314903846154,10.548994992303477L242.4793269230769,12.403147636202846L247.0155048076923,6.847489622810378" style="fill: none;" fill="none"></path></g><g><path stroke="rgb(255, 112, 67)" stroke-width="2px" d="M24.742788461538463,53.6850389792369L29.278966346153844,104.99614624206262L33.81514423076923,130.26971563669667L38.35132211538461,142.73839364737816L42.8875,149.64861300935226L47.42367788461539,154.00663537172616L51.959855769230764,157.44462207208204L56.496033653846155,158.42790104714655L61.03221153846154,158.49024446057697L65.56838942307692,159.58796298839587L70.1045673076923,160.96503594466077L74.6407451923077,161.6037721686376L79.17692307692309,162.07085546465595L83.71310096153846,162.19850568763323L88.24927884615384,162.3984808509751L92.78545673076923,162.53340805870056L97.32163461538461,162.24437956100772L101.8578125,162.51431647704473L106.39399038461539,162.74548900091148L110.93016826923078,162.4954517798738L115.46634615384616,162.63886574706942L120.00252403846153,162.63594563055955L124.53870192307691,162.69433191256448L129.0748798076923,162.86620847351907L133.6110576923077,163.02206346463763L138.14723557692307,162.73614047980473L142.68341346153844,162.66864021954916L147.21959134615383,162.89540688999134L151.75576923076923,162.1004453900332L156.2919471153846,159.2002125739325L160.828125,151.9541887230199L165.36430288461537,150.23922370056084L169.90048076923077,145.2999945314673L174.43665865384617,127.2919750643897L178.97283653846154,122.60942281289329L183.50901442307693,103.45003310443437L188.0451923076923,97.21056248068842L192.5813701923077,83.58527085176544L197.11754807692307,78.1780768140528L201.65372596153847,71.63266658713515L206.18990384615387,77.60886825302265L210.72608173076924,60.49064556972812L215.2622596153846,32.01847700012916L219.79843749999998,37.7020992676474L224.33461538461538,41.06266723503028L228.87079326923077,30.077144516471403L233.40697115384614,9.547965366646377L237.94314903846154,19.24155334655174L242.4793269230769,1.298017536576555L247.0155048076923,25.587667819122608" style="fill: none;" fill="none"></path></g></g></g></g><g opacity="0.2"><g><g><g><path stroke="rgb(0, 119, 187)" stroke-width="2px" d="M24.742788461538463,80.99193514081149L29.278966346153844,140.1653354397187L33.81514423076923,159.0517029113208L38.35132211538461,161.78773496611618L42.8875,163.10468144070518L47.42367788461539,162.02977206475603L51.959855769230764,162.97932327150082L56.496033653846155,163.15049104032536L61.03221153846154,162.6677245797876L65.56838942307692,162.75914663975485L70.1045673076923,162.8372366957259L74.6407451923077,163.12523278394767L79.17692307692309,163.05817539459363L83.71310096153846,162.99480328124125L88.24927884615384,162.46910329485456L92.78545673076923,163.1116653025383L97.32163461538461,161.24472012840067L101.8578125,161.98588771340795L106.39399038461539,163.3222620503724L110.93016826923078,163.28826457534495L115.46634615384616,163.37549687347143L120.00252403846153,163.3846153846154L124.53870192307691,162.84887976100882L129.0748798076923,163.32863703418676L133.6110576923077,163.2804695398887L138.14723557692307,163.12945459578006L142.68341346153844,163.3268905436842L147.21959134615383,163.21895152635318L151.75576923076923,162.83346287546178L156.2919471153846,160.83412249221539L160.828125,163.01180813849294L165.36430288461537,159.27492369045146L169.90048076923077,146.88963677132358L174.43665865384617,129.93499927337353L178.97283653846154,106.90790725556704L183.50901442307693,96.12471949710296L188.0451923076923,92.73468291644866L192.5813701923077,89.94738228733725L197.11754807692307,85.83147882383605L201.65372596153847,75.39625412684222L206.18990384615387,15.469409795907843L210.72608173076924,57.41396458790854L215.2622596153846,7.688636603263725L219.79843749999998,108.1878684014082L224.33461538461538,46.70480958085795L228.87079326923077,8.681718301314579L233.40697115384614,-3.287332521035139L237.94314903846154,-6.244666030773762L242.4793269230769,15.184376601989467L247.0155048076923,-1.4859973971660472" style="fill: none;" fill="none"></path></g><g><path stroke="rgb(255, 112, 67)" stroke-width="2px" d="M24.742788461538463,53.6850389792369L29.278966346153844,135.78281059975808L33.81514423076923,154.53234225554536L38.35132211538461,157.40155898793958L42.8875,158.67059540834563L47.42367788461539,160.0353491869397L51.959855769230764,162.36099806137813L56.496033653846155,159.86153123226876L61.03221153846154,158.58218888580225L65.56838942307692,161.2179470696988L70.1045673076923,163.01815542869736L74.6407451923077,162.55840053027853L79.17692307692309,162.76995530068123L83.71310096153846,162.38973094202365L88.24927884615384,162.69820853269013L92.78545673076923,162.73570370916815L97.32163461538461,161.8109591216422L101.8578125,162.91915331414648L106.39399038461539,163.09221256990432L110.93016826923078,162.12041880270968L115.46634615384616,162.85397883270008L120.00252403846153,162.63156555188246L124.53870192307691,162.78191018283653L129.0748798076923,163.1240212789092L133.6110576923077,163.25584484356492L138.14723557692307,162.30725722188632L142.68341346153844,162.56739000188043L147.21959134615383,163.23555654751434L151.75576923076923,160.9080038723679L156.2919471153846,154.84986495269607L160.828125,141.08515534951138L165.36430288461537,147.66677650809288L169.90048076923077,137.89115136747176L174.43665865384617,100.2799471536508L178.97283653846154,115.58559463688961L183.50901442307693,74.71094903579127L188.0451923076923,87.85135664160437L192.5813701923077,63.147333534864295L197.11754807692307,70.06728578760074L201.65372596153847,61.814551268632606L206.18990384615387,86.57317073987082L210.72608173076924,34.81331156538084L215.2622596153846,-10.689775833716748L219.79843749999998,46.22753266646312L224.33461538461538,46.103519185231285L228.87079326923077,13.598860440345915L233.40697115384614,-21.245803356170654L237.94314903846154,33.78193531586574L242.4793269230769,-25.61728617778191L247.0155048076923,62.022143242450866" style="fill: none;" fill="none"></path></g></g></g></g></g></g><g transform="translate(61, 177)" clip-path="url(#clip_1)"><clipPath id="clip_1"><rect width="268" height="23"></rect></clipPath><g><g><line x1="0" y1="0" x2="0" y2="5" style="visibility: inherit;" fill="rgb(0, 0, 0)" stroke="rgb(204, 204, 204)" stroke-width="1px"></line><line x1="20.618990384615387" y1="0" x2="20.618990384615387" y2="5" style="visibility: inherit;" fill="rgb(0, 0, 0)" stroke="rgb(204, 204, 204)" stroke-width="1px"></line><line x1="41.237980769230774" y1="0" x2="41.237980769230774" y2="5" style="visibility: inherit;" fill="rgb(0, 0, 0)" stroke="rgb(204, 204, 204)" stroke-width="1px"></line><line x1="61.85697115384616" y1="0" x2="61.85697115384616" y2="5" style="visibility: inherit;" fill="rgb(0, 0, 0)" stroke="rgb(204, 204, 204)" stroke-width="1px"></line><line x1="82.47596153846155" y1="0" x2="82.47596153846155" y2="5" style="visibility: inherit;" fill="rgb(0, 0, 0)" stroke="rgb(204, 204, 204)" stroke-width="1px"></line><line x1="103.09495192307693" y1="0" x2="103.09495192307693" y2="5" style="visibility: inherit;" fill="rgb(0, 0, 0)" stroke="rgb(204, 204, 204)" stroke-width="1px"></line><line x1="123.71394230769232" y1="0" x2="123.71394230769232" y2="5" style="visibility: inherit;" fill="rgb(0, 0, 0)" stroke="rgb(204, 204, 204)" stroke-width="1px"></line><line x1="144.33293269230768" y1="0" x2="144.33293269230768" y2="5" style="visibility: inherit;" fill="rgb(0, 0, 0)" stroke="rgb(204, 204, 204)" stroke-width="1px"></line><line x1="164.9519230769231" y1="0" x2="164.9519230769231" y2="5" style="visibility: inherit;" fill="rgb(0, 0, 0)" stroke="rgb(204, 204, 204)" stroke-width="1px"></line><line x1="185.57091346153845" y1="0" x2="185.57091346153845" y2="5" style="visibility: inherit;" fill="rgb(0, 0, 0)" stroke="rgb(204, 204, 204)" stroke-width="1px"></line><line x1="206.18990384615387" y1="0" x2="206.18990384615387" y2="5" style="visibility: inherit;" fill="rgb(0, 0, 0)" stroke="rgb(204, 204, 204)" stroke-width="1px"></line><line x1="226.80889423076923" y1="0" x2="226.80889423076923" y2="5" style="visibility: inherit;" fill="rgb(0, 0, 0)" stroke="rgb(204, 204, 204)" stroke-width="1px"></line><line x1="247.42788461538464" y1="0" x2="247.42788461538464" y2="5" style="visibility: inherit;" fill="rgb(0, 0, 0)" stroke="rgb(204, 204, 204)" stroke-width="1px"></line><line x1="268.046875" y1="0" x2="268.046875" y2="5" style="visibility: inherit;" fill="rgb(0, 0, 0)" stroke="rgb(204, 204, 204)" stroke-width="1px"></line></g><g transform="translate(0, 8)"><text x="0" y="0" dx="0em" dy="0.95em" style="text-anchor: middle; visibility: hidden; font-family: Roboto, sans-serif; font-size: 12px; font-weight: 200;" fill="rgb(33, 33, 33)" stroke="none" stroke-width="1px">-50</text><text x="20.618990384615387" y="0" dx="0em" dy="0.95em" style="text-anchor: middle; visibility: inherit; font-family: Roboto, sans-serif; font-size: 12px; font-weight: 200;" fill="rgb(33, 33, 33)" stroke="none" stroke-width="1px">0</text><text x="41.237980769230774" y="0" dx="0em" dy="0.95em" style="text-anchor: middle; visibility: hidden; font-family: Roboto, sans-serif; font-size: 12px; font-weight: 200;" fill="rgb(33, 33, 33)" stroke="none" stroke-width="1px">50</text><text x="61.85697115384616" y="0" dx="0em" dy="0.95em" style="text-anchor: middle; visibility: inherit; font-family: Roboto, sans-serif; font-size: 12px; font-weight: 200;" fill="rgb(33, 33, 33)" stroke="none" stroke-width="1px">100</text><text x="82.47596153846155" y="0" dx="0em" dy="0.95em" style="text-anchor: middle; visibility: hidden; font-family: Roboto, sans-serif; font-size: 12px; font-weight: 200;" fill="rgb(33, 33, 33)" stroke="none" stroke-width="1px">150</text><text x="103.09495192307693" y="0" dx="0em" dy="0.95em" style="text-anchor: middle; visibility: inherit; font-family: Roboto, sans-serif; font-size: 12px; font-weight: 200;" fill="rgb(33, 33, 33)" stroke="none" stroke-width="1px">200</text><text x="123.71394230769232" y="0" dx="0em" dy="0.95em" style="text-anchor: middle; visibility: hidden; font-family: Roboto, sans-serif; font-size: 12px; font-weight: 200;" fill="rgb(33, 33, 33)" stroke="none" stroke-width="1px">250</text><text x="144.33293269230768" y="0" dx="0em" dy="0.95em" style="text-anchor: middle; visibility: inherit; font-family: Roboto, sans-serif; font-size: 12px; font-weight: 200;" fill="rgb(33, 33, 33)" stroke="none" stroke-width="1px">300</text><text x="164.9519230769231" y="0" dx="0em" dy="0.95em" style="text-anchor: middle; visibility: hidden; font-family: Roboto, sans-serif; font-size: 12px; font-weight: 200;" fill="rgb(33, 33, 33)" stroke="none" stroke-width="1px">350</text><text x="185.57091346153845" y="0" dx="0em" dy="0.95em" style="text-anchor: middle; visibility: inherit; font-family: Roboto, sans-serif; font-size: 12px; font-weight: 200;" fill="rgb(33, 33, 33)" stroke="none" stroke-width="1px">400</text><text x="206.18990384615387" y="0" dx="0em" dy="0.95em" style="text-anchor: middle; visibility: hidden; font-family: Roboto, sans-serif; font-size: 12px; font-weight: 200;" fill="rgb(33, 33, 33)" stroke="none" stroke-width="1px">450</text><text x="226.80889423076923" y="0" dx="0em" dy="0.95em" style="text-anchor: middle; visibility: inherit; font-family: Roboto, sans-serif; font-size: 12px; font-weight: 200;" fill="rgb(33, 33, 33)" stroke="none" stroke-width="1px">500</text><text x="247.42788461538464" y="0" dx="0em" dy="0.95em" style="text-anchor: middle; visibility: hidden; font-family: Roboto, sans-serif; font-size: 12px; font-weight: 200;" fill="rgb(33, 33, 33)" stroke="none" stroke-width="1px">550</text><text x="268.046875" y="0" dx="0em" dy="0.95em" style="text-anchor: middle; visibility: hidden; font-family: Roboto, sans-serif; font-size: 12px; font-weight: 200;" fill="rgb(33, 33, 33)" stroke="none" stroke-width="1px">600</text></g><line x1="0" y1="0" x2="268.046875" y2="0" fill="rgb(0, 0, 0)" stroke="rgb(204, 204, 204)" stroke-width="1px"></line></g></g></g></g></svg>